<svg xmlns="http://www.w3.org/2000/svg" viewBox="0 0 100 100" width="180" height="180" role="img" aria-label="Prikko">
<!--
  GENERERAD FIL. Ändra inte för hand.
  Underlag för apple-touch-icon.png, rasteriseras av brand/bygg-appikon.mjs.

  UTAN rundade hörn med flit: iOS maskar ikonen själv, och rundar man hörnen
  två gånger blir kanten grå och fransig. Fylld kant i kant av samma skäl som
  förut, iOS gör genomskinligt till svart.
-->
<rect width="100" height="100" fill="#619ed1"/><defs><clipPath id="app-pk29"><path d="M10 50C10 46.01 10.48 39.68 11.4 36C12.32 32.32 14.76 28.38 16 26C17.24 23.62 18.43 22.26 19.5 20.5C20.57 18.74 21.62 15.57 23 14.5C24.38 13.43 26.89 12.89 28.5 13.5C30.11 14.11 31.74 18.65 33.5 18.5C35.26 18.35 37.39 13.88 40 12.5C42.61 11.12 47.28 9.5 50.5 9.5C53.72 9.5 58.39 11.12 61 12.5C63.61 13.88 65.74 18.35 67.5 18.5C69.26 18.65 70.89 14.11 72.5 13.5C74.11 12.89 76.62 13.43 78 14.5C79.38 15.57 80.43 18.74 81.5 20.5C82.57 22.26 83.76 23.62 85 26C86.24 28.38 88.68 32.32 89.6 36C90.52 39.68 91 46.01 91 50C91 53.99 90.52 58.47 89.6 62C88.68 65.53 86.93 69.86 85 73C83.07 76.14 80.07 79.82 77 82.5C73.93 85.18 69.06 88.81 65 90.5C60.94 92.19 54.95 93.5 50.5 93.5C46.05 93.5 40.06 92.19 36 90.5C31.94 88.81 27.07 85.18 24 82.5C20.93 79.82 17.93 76.14 16 73C14.07 69.86 12.32 65.53 11.4 62C10.48 58.47 10 53.99 10 50Z"/></clipPath></defs><g transform="translate(50 50)scale(1.2)translate(-51 -55)"><path d="M10 50C10 46.01 10.48 39.68 11.4 36C12.32 32.32 14.76 28.38 16 26C17.24 23.62 18.43 22.26 19.5 20.5C20.57 18.74 21.62 15.57 23 14.5C24.38 13.43 26.89 12.89 28.5 13.5C30.11 14.11 31.74 18.65 33.5 18.5C35.26 18.35 37.39 13.88 40 12.5C42.61 11.12 47.28 9.5 50.5 9.5C53.72 9.5 58.39 11.12 61 12.5C63.61 13.88 65.74 18.35 67.5 18.5C69.26 18.65 70.89 14.11 72.5 13.5C74.11 12.89 76.62 13.43 78 14.5C79.38 15.57 80.43 18.74 81.5 20.5C82.57 22.26 83.76 23.62 85 26C86.24 28.38 88.68 32.32 89.6 36C90.52 39.68 91 46.01 91 50C91 53.99 90.52 58.47 89.6 62C88.68 65.53 86.93 69.86 85 73C83.07 76.14 80.07 79.82 77 82.5C73.93 85.18 69.06 88.81 65 90.5C60.94 92.19 54.95 93.5 50.5 93.5C46.05 93.5 40.06 92.19 36 90.5C31.94 88.81 27.07 85.18 24 82.5C20.93 79.82 17.93 76.14 16 73C14.07 69.86 12.32 65.53 11.4 62C10.48 58.47 10 53.99 10 50Z" fill="#9ecdf3"/><g clip-path="url(#app-pk29)"><defs><clipPath id="app-pk2a"><path d="M17.58 -9.5C14.35 -7.05 16.51 1.9 16.18 6.5C15.85 11.1 15.57 16.51 15.4 20.5C15.23 24.49 15.14 28.82 15.09 32.5C15.04 36.18 15.04 40.82 15.09 44.5C15.14 48.18 15.26 53.74 15.4 56.5C15.54 59.26 15.64 60.81 16.02 62.5C16.41 64.19 16.84 66.04 17.9 67.5C18.95 68.96 20.88 71 22.89 72C24.9 73 28.56 74 31 74C33.44 74 36.84 73 38.8 72C40.76 71 42.74 68.96 43.79 67.5C44.84 66.04 45.26 64.19 45.66 62.5C46.07 60.81 46.3 58.95 46.44 56.5C46.59 54.05 46.77 49.87 46.6 46.5C46.43 43.13 45.97 38.18 45.35 34.5C44.73 30.82 43.41 26.49 42.54 22.5C41.68 18.51 40.55 13.41 39.74 8.5C38.92 3.59 40.64 -6.74 37.24 -9.5C33.84 -12.26 20.81 -11.95 17.58 -9.5Z"/><path d="M84.93 -11.5C88.29 -9.05 86.04 -0.1 86.39 4.5C86.74 9.1 87.03 14.51 87.2 18.5C87.37 22.49 87.47 26.82 87.52 30.5C87.57 34.18 87.57 38.82 87.52 42.5C87.47 46.18 87.35 51.74 87.2 54.5C87.05 57.26 86.95 58.81 86.55 60.5C86.15 62.19 85.7 64.04 84.61 65.5C83.52 66.96 81.51 69 79.42 70C77.34 71 73.53 72 71 72C68.47 72 64.94 71 62.9 70C60.86 69 58.81 66.96 57.72 65.5C56.62 64.04 56.19 62.19 55.77 60.5C55.35 58.81 55.11 56.95 54.96 54.5C54.81 52.05 54.63 47.87 54.8 44.5C54.97 41.13 55.45 36.18 56.1 32.5C56.74 28.82 58.12 24.49 59.01 20.5C59.91 16.51 61.08 11.41 61.93 6.5C62.77 1.59 60.99 -8.74 64.52 -11.5C68.05 -14.26 81.58 -13.95 84.93 -11.5Z"/></clipPath></defs><g fill="#005ba6"><path d="M17.58 -9.5C14.35 -7.05 16.51 1.9 16.18 6.5C15.85 11.1 15.57 16.51 15.4 20.5C15.23 24.49 15.14 28.82 15.09 32.5C15.04 36.18 15.04 40.82 15.09 44.5C15.14 48.18 15.26 53.74 15.4 56.5C15.54 59.26 15.64 60.81 16.02 62.5C16.41 64.19 16.84 66.04 17.9 67.5C18.95 68.96 20.88 71 22.89 72C24.9 73 28.56 74 31 74C33.44 74 36.84 73 38.8 72C40.76 71 42.74 68.96 43.79 67.5C44.84 66.04 45.26 64.19 45.66 62.5C46.07 60.81 46.3 58.95 46.44 56.5C46.59 54.05 46.77 49.87 46.6 46.5C46.43 43.13 45.97 38.18 45.35 34.5C44.73 30.82 43.41 26.49 42.54 22.5C41.68 18.51 40.55 13.41 39.74 8.5C38.92 3.59 40.64 -6.74 37.24 -9.5C33.84 -12.26 20.81 -11.95 17.58 -9.5Z"/><path d="M84.93 -11.5C88.29 -9.05 86.04 -0.1 86.39 4.5C86.74 9.1 87.03 14.51 87.2 18.5C87.37 22.49 87.47 26.82 87.52 30.5C87.57 34.18 87.57 38.82 87.52 42.5C87.47 46.18 87.35 51.74 87.2 54.5C87.05 57.26 86.95 58.81 86.55 60.5C86.15 62.19 85.7 64.04 84.61 65.5C83.52 66.96 81.51 69 79.42 70C77.34 71 73.53 72 71 72C68.47 72 64.94 71 62.9 70C60.86 69 58.81 66.96 57.72 65.5C56.62 64.04 56.19 62.19 55.77 60.5C55.35 58.81 55.11 56.95 54.96 54.5C54.81 52.05 54.63 47.87 54.8 44.5C54.97 41.13 55.45 36.18 56.1 32.5C56.74 28.82 58.12 24.49 59.01 20.5C59.91 16.51 61.08 11.41 61.93 6.5C62.77 1.59 60.99 -8.74 64.52 -11.5C68.05 -14.26 81.58 -13.95 84.93 -11.5Z"/><path d="M39.5 62C40.17 60.5 43.27 58.33 45 57.5C46.73 56.67 49.2 56.5 51 56.5C52.8 56.5 55.27 56.67 57 57.5C58.73 58.33 61.83 60.5 62.5 62C63.17 63.5 62.33 66 61.5 67.5C60.67 69 58.58 70.95 57 72C55.42 73.05 52.8 74.5 51 74.5C49.2 74.5 46.58 73.05 45 72C43.42 70.95 41.33 69 40.5 67.5C39.67 66 38.83 63.5 39.5 62Z"/></g><g fill="#9ecdf3"><ellipse cx="24.6" cy="17.2" rx="4.9" ry="4.0" transform="rotate(-22 24.6 17.2)"/><ellipse cx="76.4" cy="17.2" rx="5.2" ry="4.2" transform="rotate(22 76.4 17.2)"/></g><ellipse cx="31" cy="50.5" rx="12.4" ry="13.1" transform="rotate(-5 31 50.5)" fill="#fff"/><ellipse cx="71" cy="48.5" rx="13.2" ry="14" transform="rotate(6 71 48.5)" fill="#fff"/><circle cx="32.96" cy="53.63" r="6.82" fill="#002f55"/><circle cx="70.15" cy="51.9" r="7.26" fill="#002f55"/><g clip-path="url(#app-pk2a)"><g fill="#005ba6"><ellipse class="lock-hoger" cx="71" cy="33.5" rx="25.74" ry="0.4"/></g><g fill="#9ecdf3"><path d="M20.3 23.68C21.34 22.73 24.03 23.94 25.62 24.05C27.22 24.16 29.35 24.3 30.94 24.41C32.54 24.52 34.66 24.66 36.26 24.77C37.85 24.88 40.42 24.59 41.58 25.14C42.73 25.68 43.87 27.37 43.95 28.4C44.03 29.43 43.17 31.29 42.12 32C41.06 32.72 38.48 32.84 36.92 33.19C35.36 33.55 33.28 34.03 31.73 34.38C30.17 34.74 28.09 35.22 26.53 35.57C24.97 35.93 22.51 37.54 21.33 36.77C20.16 35.99 18.87 32.35 18.72 30.39C18.56 28.43 19.27 24.64 20.3 23.68Z"/><path d="M83.2 20.55C82.12 19.56 79.23 20.68 77.53 20.73C75.83 20.79 73.57 20.87 71.87 20.92C70.17 20.98 67.91 21.05 66.21 21.11C64.51 21.17 61.78 20.79 60.54 21.3C59.3 21.81 58.06 23.46 57.95 24.49C57.84 25.52 58.72 27.4 59.82 28.15C60.93 28.9 63.67 29.1 65.32 29.51C66.97 29.92 69.17 30.46 70.82 30.87C72.47 31.28 74.68 31.83 76.33 32.23C77.98 32.64 80.56 34.34 81.83 33.6C83.09 32.86 84.54 29.26 84.75 27.31C84.95 25.35 84.28 21.53 83.2 20.55Z"/></g></g><path class="mun" pathLength="1" d="M41.56 75.86A11.96 11.96 0 0 0 60.44 76.52" fill="none" stroke="#005ba6" stroke-width="5.68" stroke-linecap="round"/></g></g></svg>
